<svg xmlns="http://www.w3.org/2000/svg" viewBox="0 0 241 240" width="241" height="220">
	<defs>
		<linearGradient id="grd1" gradientUnits="userSpaceOnUse"  x1="161.01" y1="40.008" x2="101.01" y2="180">
			<stop offset="0" stop-color="#424d58"  />
			<stop offset="1" stop-color="#272a2f"  />
		</linearGradient>
	</defs>
	<style>
		tspan { white-space:pre }
		.shp0 { fill: url(#grd1) } 
		.shp1 { fill: #ffffff } 
	</style>
	<path id="Layer" class="shp0" d="M121 240C54.64 240 1 186.36 1 120C1 53.64 54.64 0 121 0C187.36 0 241 53.64 241 120C241 186.36 187.36 240 121 240Z" />
	<path id="Layer" class="shp1" d="M50.94 118.96L131.75 85.66C139.73 82.2 166.78 71.1 166.78 71.1C166.78 71.1 179.27 66.24 178.23 78.03C177.88 82.89 175.11 99.88 172.33 118.26L163.66 172.71C163.66 172.71 162.97 180.69 157.06 182.08C151.16 183.47 141.45 177.22 139.72 175.84C138.33 174.8 113.71 159.19 104.69 151.56C102.26 149.48 99.49 145.32 105.04 140.46C117.52 129.02 132.44 114.8 141.45 105.78C145.62 101.62 149.78 91.91 132.44 103.7L83.54 136.65C83.54 136.65 77.99 140.11 67.58 136.99C57.18 133.87 45.04 129.71 45.04 129.71C45.04 129.71 36.71 124.51 50.93 118.96L50.94 118.96Z" />
</svg>